%TF.GenerationSoftware,KiCad,Pcbnew,9.0.6*%
%TF.CreationDate,2025-12-11T17:35:40-05:00*%
%TF.ProjectId,Flex Ring,466c6578-2052-4696-9e67-2e6b69636164,rev?*%
%TF.SameCoordinates,Original*%
%TF.FileFunction,Legend,Top*%
%TF.FilePolarity,Positive*%
%FSLAX46Y46*%
G04 Gerber Fmt 4.6, Leading zero omitted, Abs format (unit mm)*
G04 Created by KiCad (PCBNEW 9.0.6) date 2025-12-11 17:35:40*
%MOMM*%
%LPD*%
G01*
G04 APERTURE LIST*
%ADD10C,0.150000*%
%ADD11C,0.120000*%
G04 APERTURE END LIST*
D10*
X169559580Y-40942857D02*
X169607200Y-40990476D01*
X169607200Y-40990476D02*
X169654819Y-41133333D01*
X169654819Y-41133333D02*
X169654819Y-41228571D01*
X169654819Y-41228571D02*
X169607200Y-41371428D01*
X169607200Y-41371428D02*
X169511961Y-41466666D01*
X169511961Y-41466666D02*
X169416723Y-41514285D01*
X169416723Y-41514285D02*
X169226247Y-41561904D01*
X169226247Y-41561904D02*
X169083390Y-41561904D01*
X169083390Y-41561904D02*
X168892914Y-41514285D01*
X168892914Y-41514285D02*
X168797676Y-41466666D01*
X168797676Y-41466666D02*
X168702438Y-41371428D01*
X168702438Y-41371428D02*
X168654819Y-41228571D01*
X168654819Y-41228571D02*
X168654819Y-41133333D01*
X168654819Y-41133333D02*
X168702438Y-40990476D01*
X168702438Y-40990476D02*
X168750057Y-40942857D01*
X169654819Y-39990476D02*
X169654819Y-40561904D01*
X169654819Y-40276190D02*
X168654819Y-40276190D01*
X168654819Y-40276190D02*
X168797676Y-40371428D01*
X168797676Y-40371428D02*
X168892914Y-40466666D01*
X168892914Y-40466666D02*
X168940533Y-40561904D01*
X168654819Y-39371428D02*
X168654819Y-39276190D01*
X168654819Y-39276190D02*
X168702438Y-39180952D01*
X168702438Y-39180952D02*
X168750057Y-39133333D01*
X168750057Y-39133333D02*
X168845295Y-39085714D01*
X168845295Y-39085714D02*
X169035771Y-39038095D01*
X169035771Y-39038095D02*
X169273866Y-39038095D01*
X169273866Y-39038095D02*
X169464342Y-39085714D01*
X169464342Y-39085714D02*
X169559580Y-39133333D01*
X169559580Y-39133333D02*
X169607200Y-39180952D01*
X169607200Y-39180952D02*
X169654819Y-39276190D01*
X169654819Y-39276190D02*
X169654819Y-39371428D01*
X169654819Y-39371428D02*
X169607200Y-39466666D01*
X169607200Y-39466666D02*
X169559580Y-39514285D01*
X169559580Y-39514285D02*
X169464342Y-39561904D01*
X169464342Y-39561904D02*
X169273866Y-39609523D01*
X169273866Y-39609523D02*
X169035771Y-39609523D01*
X169035771Y-39609523D02*
X168845295Y-39561904D01*
X168845295Y-39561904D02*
X168750057Y-39514285D01*
X168750057Y-39514285D02*
X168702438Y-39466666D01*
X168702438Y-39466666D02*
X168654819Y-39371428D01*
X167038095Y-29992319D02*
X167038095Y-30801842D01*
X167038095Y-30801842D02*
X167085714Y-30897080D01*
X167085714Y-30897080D02*
X167133333Y-30944700D01*
X167133333Y-30944700D02*
X167228571Y-30992319D01*
X167228571Y-30992319D02*
X167419047Y-30992319D01*
X167419047Y-30992319D02*
X167514285Y-30944700D01*
X167514285Y-30944700D02*
X167561904Y-30897080D01*
X167561904Y-30897080D02*
X167609523Y-30801842D01*
X167609523Y-30801842D02*
X167609523Y-29992319D01*
X168514285Y-30325652D02*
X168514285Y-30992319D01*
X168276190Y-29944700D02*
X168038095Y-30658985D01*
X168038095Y-30658985D02*
X168657142Y-30658985D01*
X194231009Y-21385714D02*
X194278628Y-21242857D01*
X194278628Y-21242857D02*
X194326247Y-21195238D01*
X194326247Y-21195238D02*
X194421485Y-21147619D01*
X194421485Y-21147619D02*
X194564342Y-21147619D01*
X194564342Y-21147619D02*
X194659580Y-21195238D01*
X194659580Y-21195238D02*
X194707200Y-21242857D01*
X194707200Y-21242857D02*
X194754819Y-21338095D01*
X194754819Y-21338095D02*
X194754819Y-21719047D01*
X194754819Y-21719047D02*
X193754819Y-21719047D01*
X193754819Y-21719047D02*
X193754819Y-21385714D01*
X193754819Y-21385714D02*
X193802438Y-21290476D01*
X193802438Y-21290476D02*
X193850057Y-21242857D01*
X193850057Y-21242857D02*
X193945295Y-21195238D01*
X193945295Y-21195238D02*
X194040533Y-21195238D01*
X194040533Y-21195238D02*
X194135771Y-21242857D01*
X194135771Y-21242857D02*
X194183390Y-21290476D01*
X194183390Y-21290476D02*
X194231009Y-21385714D01*
X194231009Y-21385714D02*
X194231009Y-21719047D01*
X193754819Y-20861904D02*
X193754819Y-20290476D01*
X194754819Y-20576190D02*
X193754819Y-20576190D01*
X194754819Y-19433333D02*
X194754819Y-20004761D01*
X194754819Y-19719047D02*
X193754819Y-19719047D01*
X193754819Y-19719047D02*
X193897676Y-19814285D01*
X193897676Y-19814285D02*
X193992914Y-19909523D01*
X193992914Y-19909523D02*
X194040533Y-20004761D01*
X200559580Y-25366666D02*
X200607200Y-25414285D01*
X200607200Y-25414285D02*
X200654819Y-25557142D01*
X200654819Y-25557142D02*
X200654819Y-25652380D01*
X200654819Y-25652380D02*
X200607200Y-25795237D01*
X200607200Y-25795237D02*
X200511961Y-25890475D01*
X200511961Y-25890475D02*
X200416723Y-25938094D01*
X200416723Y-25938094D02*
X200226247Y-25985713D01*
X200226247Y-25985713D02*
X200083390Y-25985713D01*
X200083390Y-25985713D02*
X199892914Y-25938094D01*
X199892914Y-25938094D02*
X199797676Y-25890475D01*
X199797676Y-25890475D02*
X199702438Y-25795237D01*
X199702438Y-25795237D02*
X199654819Y-25652380D01*
X199654819Y-25652380D02*
X199654819Y-25557142D01*
X199654819Y-25557142D02*
X199702438Y-25414285D01*
X199702438Y-25414285D02*
X199750057Y-25366666D01*
X200654819Y-24414285D02*
X200654819Y-24985713D01*
X200654819Y-24699999D02*
X199654819Y-24699999D01*
X199654819Y-24699999D02*
X199797676Y-24795237D01*
X199797676Y-24795237D02*
X199892914Y-24890475D01*
X199892914Y-24890475D02*
X199940533Y-24985713D01*
X200864819Y-22613333D02*
X201579104Y-22613333D01*
X201579104Y-22613333D02*
X201721961Y-22660952D01*
X201721961Y-22660952D02*
X201817200Y-22756190D01*
X201817200Y-22756190D02*
X201864819Y-22899047D01*
X201864819Y-22899047D02*
X201864819Y-22994285D01*
X201864819Y-21613333D02*
X201864819Y-22184761D01*
X201864819Y-21899047D02*
X200864819Y-21899047D01*
X200864819Y-21899047D02*
X201007676Y-21994285D01*
X201007676Y-21994285D02*
X201102914Y-22089523D01*
X201102914Y-22089523D02*
X201150533Y-22184761D01*
X163038095Y-24354819D02*
X163038095Y-25164342D01*
X163038095Y-25164342D02*
X163085714Y-25259580D01*
X163085714Y-25259580D02*
X163133333Y-25307200D01*
X163133333Y-25307200D02*
X163228571Y-25354819D01*
X163228571Y-25354819D02*
X163419047Y-25354819D01*
X163419047Y-25354819D02*
X163514285Y-25307200D01*
X163514285Y-25307200D02*
X163561904Y-25259580D01*
X163561904Y-25259580D02*
X163609523Y-25164342D01*
X163609523Y-25164342D02*
X163609523Y-24354819D01*
X164609523Y-25354819D02*
X164038095Y-25354819D01*
X164323809Y-25354819D02*
X164323809Y-24354819D01*
X164323809Y-24354819D02*
X164228571Y-24497676D01*
X164228571Y-24497676D02*
X164133333Y-24592914D01*
X164133333Y-24592914D02*
X164038095Y-24640533D01*
X165654819Y-26561904D02*
X166464342Y-26561904D01*
X166464342Y-26561904D02*
X166559580Y-26514285D01*
X166559580Y-26514285D02*
X166607200Y-26466666D01*
X166607200Y-26466666D02*
X166654819Y-26371428D01*
X166654819Y-26371428D02*
X166654819Y-26180952D01*
X166654819Y-26180952D02*
X166607200Y-26085714D01*
X166607200Y-26085714D02*
X166559580Y-26038095D01*
X166559580Y-26038095D02*
X166464342Y-25990476D01*
X166464342Y-25990476D02*
X165654819Y-25990476D01*
X165750057Y-25561904D02*
X165702438Y-25514285D01*
X165702438Y-25514285D02*
X165654819Y-25419047D01*
X165654819Y-25419047D02*
X165654819Y-25180952D01*
X165654819Y-25180952D02*
X165702438Y-25085714D01*
X165702438Y-25085714D02*
X165750057Y-25038095D01*
X165750057Y-25038095D02*
X165845295Y-24990476D01*
X165845295Y-24990476D02*
X165940533Y-24990476D01*
X165940533Y-24990476D02*
X166083390Y-25038095D01*
X166083390Y-25038095D02*
X166654819Y-25609523D01*
X166654819Y-25609523D02*
X166654819Y-24990476D01*
X196031009Y-37090475D02*
X196031009Y-36757142D01*
X196554819Y-36614285D02*
X196554819Y-37090475D01*
X196554819Y-37090475D02*
X195554819Y-37090475D01*
X195554819Y-37090475D02*
X195554819Y-36614285D01*
X196554819Y-35661904D02*
X196554819Y-36233332D01*
X196554819Y-35947618D02*
X195554819Y-35947618D01*
X195554819Y-35947618D02*
X195697676Y-36042856D01*
X195697676Y-36042856D02*
X195792914Y-36138094D01*
X195792914Y-36138094D02*
X195840533Y-36233332D01*
X194909524Y-34131009D02*
X195242857Y-34131009D01*
X195385714Y-34654819D02*
X194909524Y-34654819D01*
X194909524Y-34654819D02*
X194909524Y-33654819D01*
X194909524Y-33654819D02*
X195385714Y-33654819D01*
X195766667Y-33750057D02*
X195814286Y-33702438D01*
X195814286Y-33702438D02*
X195909524Y-33654819D01*
X195909524Y-33654819D02*
X196147619Y-33654819D01*
X196147619Y-33654819D02*
X196242857Y-33702438D01*
X196242857Y-33702438D02*
X196290476Y-33750057D01*
X196290476Y-33750057D02*
X196338095Y-33845295D01*
X196338095Y-33845295D02*
X196338095Y-33940533D01*
X196338095Y-33940533D02*
X196290476Y-34083390D01*
X196290476Y-34083390D02*
X195719048Y-34654819D01*
X195719048Y-34654819D02*
X196338095Y-34654819D01*
X164257142Y-28259580D02*
X164209523Y-28307200D01*
X164209523Y-28307200D02*
X164066666Y-28354819D01*
X164066666Y-28354819D02*
X163971428Y-28354819D01*
X163971428Y-28354819D02*
X163828571Y-28307200D01*
X163828571Y-28307200D02*
X163733333Y-28211961D01*
X163733333Y-28211961D02*
X163685714Y-28116723D01*
X163685714Y-28116723D02*
X163638095Y-27926247D01*
X163638095Y-27926247D02*
X163638095Y-27783390D01*
X163638095Y-27783390D02*
X163685714Y-27592914D01*
X163685714Y-27592914D02*
X163733333Y-27497676D01*
X163733333Y-27497676D02*
X163828571Y-27402438D01*
X163828571Y-27402438D02*
X163971428Y-27354819D01*
X163971428Y-27354819D02*
X164066666Y-27354819D01*
X164066666Y-27354819D02*
X164209523Y-27402438D01*
X164209523Y-27402438D02*
X164257142Y-27450057D01*
X165209523Y-28354819D02*
X164638095Y-28354819D01*
X164923809Y-28354819D02*
X164923809Y-27354819D01*
X164923809Y-27354819D02*
X164828571Y-27497676D01*
X164828571Y-27497676D02*
X164733333Y-27592914D01*
X164733333Y-27592914D02*
X164638095Y-27640533D01*
X165590476Y-27450057D02*
X165638095Y-27402438D01*
X165638095Y-27402438D02*
X165733333Y-27354819D01*
X165733333Y-27354819D02*
X165971428Y-27354819D01*
X165971428Y-27354819D02*
X166066666Y-27402438D01*
X166066666Y-27402438D02*
X166114285Y-27450057D01*
X166114285Y-27450057D02*
X166161904Y-27545295D01*
X166161904Y-27545295D02*
X166161904Y-27640533D01*
X166161904Y-27640533D02*
X166114285Y-27783390D01*
X166114285Y-27783390D02*
X165542857Y-28354819D01*
X165542857Y-28354819D02*
X166161904Y-28354819D01*
X197333333Y-23859580D02*
X197285714Y-23907200D01*
X197285714Y-23907200D02*
X197142857Y-23954819D01*
X197142857Y-23954819D02*
X197047619Y-23954819D01*
X197047619Y-23954819D02*
X196904762Y-23907200D01*
X196904762Y-23907200D02*
X196809524Y-23811961D01*
X196809524Y-23811961D02*
X196761905Y-23716723D01*
X196761905Y-23716723D02*
X196714286Y-23526247D01*
X196714286Y-23526247D02*
X196714286Y-23383390D01*
X196714286Y-23383390D02*
X196761905Y-23192914D01*
X196761905Y-23192914D02*
X196809524Y-23097676D01*
X196809524Y-23097676D02*
X196904762Y-23002438D01*
X196904762Y-23002438D02*
X197047619Y-22954819D01*
X197047619Y-22954819D02*
X197142857Y-22954819D01*
X197142857Y-22954819D02*
X197285714Y-23002438D01*
X197285714Y-23002438D02*
X197333333Y-23050057D01*
X198238095Y-22954819D02*
X197761905Y-22954819D01*
X197761905Y-22954819D02*
X197714286Y-23431009D01*
X197714286Y-23431009D02*
X197761905Y-23383390D01*
X197761905Y-23383390D02*
X197857143Y-23335771D01*
X197857143Y-23335771D02*
X198095238Y-23335771D01*
X198095238Y-23335771D02*
X198190476Y-23383390D01*
X198190476Y-23383390D02*
X198238095Y-23431009D01*
X198238095Y-23431009D02*
X198285714Y-23526247D01*
X198285714Y-23526247D02*
X198285714Y-23764342D01*
X198285714Y-23764342D02*
X198238095Y-23859580D01*
X198238095Y-23859580D02*
X198190476Y-23907200D01*
X198190476Y-23907200D02*
X198095238Y-23954819D01*
X198095238Y-23954819D02*
X197857143Y-23954819D01*
X197857143Y-23954819D02*
X197761905Y-23907200D01*
X197761905Y-23907200D02*
X197714286Y-23859580D01*
X194533333Y-25159580D02*
X194485714Y-25207200D01*
X194485714Y-25207200D02*
X194342857Y-25254819D01*
X194342857Y-25254819D02*
X194247619Y-25254819D01*
X194247619Y-25254819D02*
X194104762Y-25207200D01*
X194104762Y-25207200D02*
X194009524Y-25111961D01*
X194009524Y-25111961D02*
X193961905Y-25016723D01*
X193961905Y-25016723D02*
X193914286Y-24826247D01*
X193914286Y-24826247D02*
X193914286Y-24683390D01*
X193914286Y-24683390D02*
X193961905Y-24492914D01*
X193961905Y-24492914D02*
X194009524Y-24397676D01*
X194009524Y-24397676D02*
X194104762Y-24302438D01*
X194104762Y-24302438D02*
X194247619Y-24254819D01*
X194247619Y-24254819D02*
X194342857Y-24254819D01*
X194342857Y-24254819D02*
X194485714Y-24302438D01*
X194485714Y-24302438D02*
X194533333Y-24350057D01*
X195390476Y-24254819D02*
X195200000Y-24254819D01*
X195200000Y-24254819D02*
X195104762Y-24302438D01*
X195104762Y-24302438D02*
X195057143Y-24350057D01*
X195057143Y-24350057D02*
X194961905Y-24492914D01*
X194961905Y-24492914D02*
X194914286Y-24683390D01*
X194914286Y-24683390D02*
X194914286Y-25064342D01*
X194914286Y-25064342D02*
X194961905Y-25159580D01*
X194961905Y-25159580D02*
X195009524Y-25207200D01*
X195009524Y-25207200D02*
X195104762Y-25254819D01*
X195104762Y-25254819D02*
X195295238Y-25254819D01*
X195295238Y-25254819D02*
X195390476Y-25207200D01*
X195390476Y-25207200D02*
X195438095Y-25159580D01*
X195438095Y-25159580D02*
X195485714Y-25064342D01*
X195485714Y-25064342D02*
X195485714Y-24826247D01*
X195485714Y-24826247D02*
X195438095Y-24731009D01*
X195438095Y-24731009D02*
X195390476Y-24683390D01*
X195390476Y-24683390D02*
X195295238Y-24635771D01*
X195295238Y-24635771D02*
X195104762Y-24635771D01*
X195104762Y-24635771D02*
X195009524Y-24683390D01*
X195009524Y-24683390D02*
X194961905Y-24731009D01*
X194961905Y-24731009D02*
X194914286Y-24826247D01*
X196438095Y-28554819D02*
X196438095Y-29364342D01*
X196438095Y-29364342D02*
X196485714Y-29459580D01*
X196485714Y-29459580D02*
X196533333Y-29507200D01*
X196533333Y-29507200D02*
X196628571Y-29554819D01*
X196628571Y-29554819D02*
X196819047Y-29554819D01*
X196819047Y-29554819D02*
X196914285Y-29507200D01*
X196914285Y-29507200D02*
X196961904Y-29459580D01*
X196961904Y-29459580D02*
X197009523Y-29364342D01*
X197009523Y-29364342D02*
X197009523Y-28554819D01*
X197961904Y-28554819D02*
X197485714Y-28554819D01*
X197485714Y-28554819D02*
X197438095Y-29031009D01*
X197438095Y-29031009D02*
X197485714Y-28983390D01*
X197485714Y-28983390D02*
X197580952Y-28935771D01*
X197580952Y-28935771D02*
X197819047Y-28935771D01*
X197819047Y-28935771D02*
X197914285Y-28983390D01*
X197914285Y-28983390D02*
X197961904Y-29031009D01*
X197961904Y-29031009D02*
X198009523Y-29126247D01*
X198009523Y-29126247D02*
X198009523Y-29364342D01*
X198009523Y-29364342D02*
X197961904Y-29459580D01*
X197961904Y-29459580D02*
X197914285Y-29507200D01*
X197914285Y-29507200D02*
X197819047Y-29554819D01*
X197819047Y-29554819D02*
X197580952Y-29554819D01*
X197580952Y-29554819D02*
X197485714Y-29507200D01*
X197485714Y-29507200D02*
X197438095Y-29459580D01*
X165158333Y-34772319D02*
X164825000Y-34296128D01*
X164586905Y-34772319D02*
X164586905Y-33772319D01*
X164586905Y-33772319D02*
X164967857Y-33772319D01*
X164967857Y-33772319D02*
X165063095Y-33819938D01*
X165063095Y-33819938D02*
X165110714Y-33867557D01*
X165110714Y-33867557D02*
X165158333Y-33962795D01*
X165158333Y-33962795D02*
X165158333Y-34105652D01*
X165158333Y-34105652D02*
X165110714Y-34200890D01*
X165110714Y-34200890D02*
X165063095Y-34248509D01*
X165063095Y-34248509D02*
X164967857Y-34296128D01*
X164967857Y-34296128D02*
X164586905Y-34296128D01*
X165491667Y-33772319D02*
X166110714Y-33772319D01*
X166110714Y-33772319D02*
X165777381Y-34153271D01*
X165777381Y-34153271D02*
X165920238Y-34153271D01*
X165920238Y-34153271D02*
X166015476Y-34200890D01*
X166015476Y-34200890D02*
X166063095Y-34248509D01*
X166063095Y-34248509D02*
X166110714Y-34343747D01*
X166110714Y-34343747D02*
X166110714Y-34581842D01*
X166110714Y-34581842D02*
X166063095Y-34677080D01*
X166063095Y-34677080D02*
X166015476Y-34724700D01*
X166015476Y-34724700D02*
X165920238Y-34772319D01*
X165920238Y-34772319D02*
X165634524Y-34772319D01*
X165634524Y-34772319D02*
X165539286Y-34724700D01*
X165539286Y-34724700D02*
X165491667Y-34677080D01*
X170154819Y-31385714D02*
X169678628Y-31719047D01*
X170154819Y-31957142D02*
X169154819Y-31957142D01*
X169154819Y-31957142D02*
X169154819Y-31576190D01*
X169154819Y-31576190D02*
X169202438Y-31480952D01*
X169202438Y-31480952D02*
X169250057Y-31433333D01*
X169250057Y-31433333D02*
X169345295Y-31385714D01*
X169345295Y-31385714D02*
X169488152Y-31385714D01*
X169488152Y-31385714D02*
X169583390Y-31433333D01*
X169583390Y-31433333D02*
X169631009Y-31480952D01*
X169631009Y-31480952D02*
X169678628Y-31576190D01*
X169678628Y-31576190D02*
X169678628Y-31957142D01*
X170250057Y-31195238D02*
X170250057Y-30433333D01*
X170154819Y-30195237D02*
X169154819Y-30195237D01*
X169154819Y-30195237D02*
X169154819Y-29814285D01*
X169154819Y-29814285D02*
X169202438Y-29719047D01*
X169202438Y-29719047D02*
X169250057Y-29671428D01*
X169250057Y-29671428D02*
X169345295Y-29623809D01*
X169345295Y-29623809D02*
X169488152Y-29623809D01*
X169488152Y-29623809D02*
X169583390Y-29671428D01*
X169583390Y-29671428D02*
X169631009Y-29719047D01*
X169631009Y-29719047D02*
X169678628Y-29814285D01*
X169678628Y-29814285D02*
X169678628Y-30195237D01*
X170154819Y-28623809D02*
X169678628Y-28957142D01*
X170154819Y-29195237D02*
X169154819Y-29195237D01*
X169154819Y-29195237D02*
X169154819Y-28814285D01*
X169154819Y-28814285D02*
X169202438Y-28719047D01*
X169202438Y-28719047D02*
X169250057Y-28671428D01*
X169250057Y-28671428D02*
X169345295Y-28623809D01*
X169345295Y-28623809D02*
X169488152Y-28623809D01*
X169488152Y-28623809D02*
X169583390Y-28671428D01*
X169583390Y-28671428D02*
X169631009Y-28719047D01*
X169631009Y-28719047D02*
X169678628Y-28814285D01*
X169678628Y-28814285D02*
X169678628Y-29195237D01*
X169154819Y-28004761D02*
X169154819Y-27814285D01*
X169154819Y-27814285D02*
X169202438Y-27719047D01*
X169202438Y-27719047D02*
X169297676Y-27623809D01*
X169297676Y-27623809D02*
X169488152Y-27576190D01*
X169488152Y-27576190D02*
X169821485Y-27576190D01*
X169821485Y-27576190D02*
X170011961Y-27623809D01*
X170011961Y-27623809D02*
X170107200Y-27719047D01*
X170107200Y-27719047D02*
X170154819Y-27814285D01*
X170154819Y-27814285D02*
X170154819Y-28004761D01*
X170154819Y-28004761D02*
X170107200Y-28099999D01*
X170107200Y-28099999D02*
X170011961Y-28195237D01*
X170011961Y-28195237D02*
X169821485Y-28242856D01*
X169821485Y-28242856D02*
X169488152Y-28242856D01*
X169488152Y-28242856D02*
X169297676Y-28195237D01*
X169297676Y-28195237D02*
X169202438Y-28099999D01*
X169202438Y-28099999D02*
X169154819Y-28004761D01*
X169154819Y-27290475D02*
X169154819Y-26719047D01*
X170154819Y-27004761D02*
X169154819Y-27004761D01*
X169631009Y-26385713D02*
X169631009Y-26052380D01*
X170154819Y-25909523D02*
X170154819Y-26385713D01*
X170154819Y-26385713D02*
X169154819Y-26385713D01*
X169154819Y-26385713D02*
X169154819Y-25909523D01*
X170059580Y-24909523D02*
X170107200Y-24957142D01*
X170107200Y-24957142D02*
X170154819Y-25099999D01*
X170154819Y-25099999D02*
X170154819Y-25195237D01*
X170154819Y-25195237D02*
X170107200Y-25338094D01*
X170107200Y-25338094D02*
X170011961Y-25433332D01*
X170011961Y-25433332D02*
X169916723Y-25480951D01*
X169916723Y-25480951D02*
X169726247Y-25528570D01*
X169726247Y-25528570D02*
X169583390Y-25528570D01*
X169583390Y-25528570D02*
X169392914Y-25480951D01*
X169392914Y-25480951D02*
X169297676Y-25433332D01*
X169297676Y-25433332D02*
X169202438Y-25338094D01*
X169202438Y-25338094D02*
X169154819Y-25195237D01*
X169154819Y-25195237D02*
X169154819Y-25099999D01*
X169154819Y-25099999D02*
X169202438Y-24957142D01*
X169202438Y-24957142D02*
X169250057Y-24909523D01*
X169154819Y-24623808D02*
X169154819Y-24052380D01*
X170154819Y-24338094D02*
X169154819Y-24338094D01*
X170154819Y-23195237D02*
X170154819Y-23766665D01*
X170154819Y-23480951D02*
X169154819Y-23480951D01*
X169154819Y-23480951D02*
X169297676Y-23576189D01*
X169297676Y-23576189D02*
X169392914Y-23671427D01*
X169392914Y-23671427D02*
X169440533Y-23766665D01*
X204354819Y-29923809D02*
X203878628Y-30257142D01*
X204354819Y-30495237D02*
X203354819Y-30495237D01*
X203354819Y-30495237D02*
X203354819Y-30114285D01*
X203354819Y-30114285D02*
X203402438Y-30019047D01*
X203402438Y-30019047D02*
X203450057Y-29971428D01*
X203450057Y-29971428D02*
X203545295Y-29923809D01*
X203545295Y-29923809D02*
X203688152Y-29923809D01*
X203688152Y-29923809D02*
X203783390Y-29971428D01*
X203783390Y-29971428D02*
X203831009Y-30019047D01*
X203831009Y-30019047D02*
X203878628Y-30114285D01*
X203878628Y-30114285D02*
X203878628Y-30495237D01*
X204450057Y-29733333D02*
X204450057Y-28971428D01*
X203402438Y-28209523D02*
X203354819Y-28304761D01*
X203354819Y-28304761D02*
X203354819Y-28447618D01*
X203354819Y-28447618D02*
X203402438Y-28590475D01*
X203402438Y-28590475D02*
X203497676Y-28685713D01*
X203497676Y-28685713D02*
X203592914Y-28733332D01*
X203592914Y-28733332D02*
X203783390Y-28780951D01*
X203783390Y-28780951D02*
X203926247Y-28780951D01*
X203926247Y-28780951D02*
X204116723Y-28733332D01*
X204116723Y-28733332D02*
X204211961Y-28685713D01*
X204211961Y-28685713D02*
X204307200Y-28590475D01*
X204307200Y-28590475D02*
X204354819Y-28447618D01*
X204354819Y-28447618D02*
X204354819Y-28352380D01*
X204354819Y-28352380D02*
X204307200Y-28209523D01*
X204307200Y-28209523D02*
X204259580Y-28161904D01*
X204259580Y-28161904D02*
X203926247Y-28161904D01*
X203926247Y-28161904D02*
X203926247Y-28352380D01*
X204307200Y-27780951D02*
X204354819Y-27638094D01*
X204354819Y-27638094D02*
X204354819Y-27399999D01*
X204354819Y-27399999D02*
X204307200Y-27304761D01*
X204307200Y-27304761D02*
X204259580Y-27257142D01*
X204259580Y-27257142D02*
X204164342Y-27209523D01*
X204164342Y-27209523D02*
X204069104Y-27209523D01*
X204069104Y-27209523D02*
X203973866Y-27257142D01*
X203973866Y-27257142D02*
X203926247Y-27304761D01*
X203926247Y-27304761D02*
X203878628Y-27399999D01*
X203878628Y-27399999D02*
X203831009Y-27590475D01*
X203831009Y-27590475D02*
X203783390Y-27685713D01*
X203783390Y-27685713D02*
X203735771Y-27733332D01*
X203735771Y-27733332D02*
X203640533Y-27780951D01*
X203640533Y-27780951D02*
X203545295Y-27780951D01*
X203545295Y-27780951D02*
X203450057Y-27733332D01*
X203450057Y-27733332D02*
X203402438Y-27685713D01*
X203402438Y-27685713D02*
X203354819Y-27590475D01*
X203354819Y-27590475D02*
X203354819Y-27352380D01*
X203354819Y-27352380D02*
X203402438Y-27209523D01*
X204354819Y-26209523D02*
X203878628Y-26542856D01*
X204354819Y-26780951D02*
X203354819Y-26780951D01*
X203354819Y-26780951D02*
X203354819Y-26399999D01*
X203354819Y-26399999D02*
X203402438Y-26304761D01*
X203402438Y-26304761D02*
X203450057Y-26257142D01*
X203450057Y-26257142D02*
X203545295Y-26209523D01*
X203545295Y-26209523D02*
X203688152Y-26209523D01*
X203688152Y-26209523D02*
X203783390Y-26257142D01*
X203783390Y-26257142D02*
X203831009Y-26304761D01*
X203831009Y-26304761D02*
X203878628Y-26399999D01*
X203878628Y-26399999D02*
X203878628Y-26780951D01*
X204354819Y-25257142D02*
X204354819Y-25828570D01*
X204354819Y-25542856D02*
X203354819Y-25542856D01*
X203354819Y-25542856D02*
X203497676Y-25638094D01*
X203497676Y-25638094D02*
X203592914Y-25733332D01*
X203592914Y-25733332D02*
X203640533Y-25828570D01*
X163676190Y-37859580D02*
X163628571Y-37907200D01*
X163628571Y-37907200D02*
X163485714Y-37954819D01*
X163485714Y-37954819D02*
X163390476Y-37954819D01*
X163390476Y-37954819D02*
X163247619Y-37907200D01*
X163247619Y-37907200D02*
X163152381Y-37811961D01*
X163152381Y-37811961D02*
X163104762Y-37716723D01*
X163104762Y-37716723D02*
X163057143Y-37526247D01*
X163057143Y-37526247D02*
X163057143Y-37383390D01*
X163057143Y-37383390D02*
X163104762Y-37192914D01*
X163104762Y-37192914D02*
X163152381Y-37097676D01*
X163152381Y-37097676D02*
X163247619Y-37002438D01*
X163247619Y-37002438D02*
X163390476Y-36954819D01*
X163390476Y-36954819D02*
X163485714Y-36954819D01*
X163485714Y-36954819D02*
X163628571Y-37002438D01*
X163628571Y-37002438D02*
X163676190Y-37050057D01*
X163866667Y-38050057D02*
X164628571Y-38050057D01*
X165390476Y-37002438D02*
X165295238Y-36954819D01*
X165295238Y-36954819D02*
X165152381Y-36954819D01*
X165152381Y-36954819D02*
X165009524Y-37002438D01*
X165009524Y-37002438D02*
X164914286Y-37097676D01*
X164914286Y-37097676D02*
X164866667Y-37192914D01*
X164866667Y-37192914D02*
X164819048Y-37383390D01*
X164819048Y-37383390D02*
X164819048Y-37526247D01*
X164819048Y-37526247D02*
X164866667Y-37716723D01*
X164866667Y-37716723D02*
X164914286Y-37811961D01*
X164914286Y-37811961D02*
X165009524Y-37907200D01*
X165009524Y-37907200D02*
X165152381Y-37954819D01*
X165152381Y-37954819D02*
X165247619Y-37954819D01*
X165247619Y-37954819D02*
X165390476Y-37907200D01*
X165390476Y-37907200D02*
X165438095Y-37859580D01*
X165438095Y-37859580D02*
X165438095Y-37526247D01*
X165438095Y-37526247D02*
X165247619Y-37526247D01*
X165819048Y-37907200D02*
X165961905Y-37954819D01*
X165961905Y-37954819D02*
X166200000Y-37954819D01*
X166200000Y-37954819D02*
X166295238Y-37907200D01*
X166295238Y-37907200D02*
X166342857Y-37859580D01*
X166342857Y-37859580D02*
X166390476Y-37764342D01*
X166390476Y-37764342D02*
X166390476Y-37669104D01*
X166390476Y-37669104D02*
X166342857Y-37573866D01*
X166342857Y-37573866D02*
X166295238Y-37526247D01*
X166295238Y-37526247D02*
X166200000Y-37478628D01*
X166200000Y-37478628D02*
X166009524Y-37431009D01*
X166009524Y-37431009D02*
X165914286Y-37383390D01*
X165914286Y-37383390D02*
X165866667Y-37335771D01*
X165866667Y-37335771D02*
X165819048Y-37240533D01*
X165819048Y-37240533D02*
X165819048Y-37145295D01*
X165819048Y-37145295D02*
X165866667Y-37050057D01*
X165866667Y-37050057D02*
X165914286Y-37002438D01*
X165914286Y-37002438D02*
X166009524Y-36954819D01*
X166009524Y-36954819D02*
X166247619Y-36954819D01*
X166247619Y-36954819D02*
X166390476Y-37002438D01*
X167390476Y-37954819D02*
X167057143Y-37478628D01*
X166819048Y-37954819D02*
X166819048Y-36954819D01*
X166819048Y-36954819D02*
X167200000Y-36954819D01*
X167200000Y-36954819D02*
X167295238Y-37002438D01*
X167295238Y-37002438D02*
X167342857Y-37050057D01*
X167342857Y-37050057D02*
X167390476Y-37145295D01*
X167390476Y-37145295D02*
X167390476Y-37288152D01*
X167390476Y-37288152D02*
X167342857Y-37383390D01*
X167342857Y-37383390D02*
X167295238Y-37431009D01*
X167295238Y-37431009D02*
X167200000Y-37478628D01*
X167200000Y-37478628D02*
X166819048Y-37478628D01*
X168342857Y-37954819D02*
X167771429Y-37954819D01*
X168057143Y-37954819D02*
X168057143Y-36954819D01*
X168057143Y-36954819D02*
X167961905Y-37097676D01*
X167961905Y-37097676D02*
X167866667Y-37192914D01*
X167866667Y-37192914D02*
X167771429Y-37240533D01*
X194154819Y-17566666D02*
X193678628Y-17899999D01*
X194154819Y-18138094D02*
X193154819Y-18138094D01*
X193154819Y-18138094D02*
X193154819Y-17757142D01*
X193154819Y-17757142D02*
X193202438Y-17661904D01*
X193202438Y-17661904D02*
X193250057Y-17614285D01*
X193250057Y-17614285D02*
X193345295Y-17566666D01*
X193345295Y-17566666D02*
X193488152Y-17566666D01*
X193488152Y-17566666D02*
X193583390Y-17614285D01*
X193583390Y-17614285D02*
X193631009Y-17661904D01*
X193631009Y-17661904D02*
X193678628Y-17757142D01*
X193678628Y-17757142D02*
X193678628Y-18138094D01*
X193154819Y-16661904D02*
X193154819Y-17138094D01*
X193154819Y-17138094D02*
X193631009Y-17185713D01*
X193631009Y-17185713D02*
X193583390Y-17138094D01*
X193583390Y-17138094D02*
X193535771Y-17042856D01*
X193535771Y-17042856D02*
X193535771Y-16804761D01*
X193535771Y-16804761D02*
X193583390Y-16709523D01*
X193583390Y-16709523D02*
X193631009Y-16661904D01*
X193631009Y-16661904D02*
X193726247Y-16614285D01*
X193726247Y-16614285D02*
X193964342Y-16614285D01*
X193964342Y-16614285D02*
X194059580Y-16661904D01*
X194059580Y-16661904D02*
X194107200Y-16709523D01*
X194107200Y-16709523D02*
X194154819Y-16804761D01*
X194154819Y-16804761D02*
X194154819Y-17042856D01*
X194154819Y-17042856D02*
X194107200Y-17138094D01*
X194107200Y-17138094D02*
X194059580Y-17185713D01*
X199054819Y-21666666D02*
X198578628Y-21999999D01*
X199054819Y-22238094D02*
X198054819Y-22238094D01*
X198054819Y-22238094D02*
X198054819Y-21857142D01*
X198054819Y-21857142D02*
X198102438Y-21761904D01*
X198102438Y-21761904D02*
X198150057Y-21714285D01*
X198150057Y-21714285D02*
X198245295Y-21666666D01*
X198245295Y-21666666D02*
X198388152Y-21666666D01*
X198388152Y-21666666D02*
X198483390Y-21714285D01*
X198483390Y-21714285D02*
X198531009Y-21761904D01*
X198531009Y-21761904D02*
X198578628Y-21857142D01*
X198578628Y-21857142D02*
X198578628Y-22238094D01*
X198388152Y-20809523D02*
X199054819Y-20809523D01*
X198007200Y-21047618D02*
X198721485Y-21285713D01*
X198721485Y-21285713D02*
X198721485Y-20666666D01*
X194854819Y-27466666D02*
X194378628Y-27799999D01*
X194854819Y-28038094D02*
X193854819Y-28038094D01*
X193854819Y-28038094D02*
X193854819Y-27657142D01*
X193854819Y-27657142D02*
X193902438Y-27561904D01*
X193902438Y-27561904D02*
X193950057Y-27514285D01*
X193950057Y-27514285D02*
X194045295Y-27466666D01*
X194045295Y-27466666D02*
X194188152Y-27466666D01*
X194188152Y-27466666D02*
X194283390Y-27514285D01*
X194283390Y-27514285D02*
X194331009Y-27561904D01*
X194331009Y-27561904D02*
X194378628Y-27657142D01*
X194378628Y-27657142D02*
X194378628Y-28038094D01*
X193950057Y-27085713D02*
X193902438Y-27038094D01*
X193902438Y-27038094D02*
X193854819Y-26942856D01*
X193854819Y-26942856D02*
X193854819Y-26704761D01*
X193854819Y-26704761D02*
X193902438Y-26609523D01*
X193902438Y-26609523D02*
X193950057Y-26561904D01*
X193950057Y-26561904D02*
X194045295Y-26514285D01*
X194045295Y-26514285D02*
X194140533Y-26514285D01*
X194140533Y-26514285D02*
X194283390Y-26561904D01*
X194283390Y-26561904D02*
X194854819Y-27133332D01*
X194854819Y-27133332D02*
X194854819Y-26514285D01*
X196333333Y-32754819D02*
X196000000Y-32278628D01*
X195761905Y-32754819D02*
X195761905Y-31754819D01*
X195761905Y-31754819D02*
X196142857Y-31754819D01*
X196142857Y-31754819D02*
X196238095Y-31802438D01*
X196238095Y-31802438D02*
X196285714Y-31850057D01*
X196285714Y-31850057D02*
X196333333Y-31945295D01*
X196333333Y-31945295D02*
X196333333Y-32088152D01*
X196333333Y-32088152D02*
X196285714Y-32183390D01*
X196285714Y-32183390D02*
X196238095Y-32231009D01*
X196238095Y-32231009D02*
X196142857Y-32278628D01*
X196142857Y-32278628D02*
X195761905Y-32278628D01*
X197285714Y-32754819D02*
X196714286Y-32754819D01*
X197000000Y-32754819D02*
X197000000Y-31754819D01*
X197000000Y-31754819D02*
X196904762Y-31897676D01*
X196904762Y-31897676D02*
X196809524Y-31992914D01*
X196809524Y-31992914D02*
X196714286Y-32040533D01*
X185866666Y-43684819D02*
X185866666Y-44399104D01*
X185866666Y-44399104D02*
X185819047Y-44541961D01*
X185819047Y-44541961D02*
X185723809Y-44637200D01*
X185723809Y-44637200D02*
X185580952Y-44684819D01*
X185580952Y-44684819D02*
X185485714Y-44684819D01*
X186295238Y-43780057D02*
X186342857Y-43732438D01*
X186342857Y-43732438D02*
X186438095Y-43684819D01*
X186438095Y-43684819D02*
X186676190Y-43684819D01*
X186676190Y-43684819D02*
X186771428Y-43732438D01*
X186771428Y-43732438D02*
X186819047Y-43780057D01*
X186819047Y-43780057D02*
X186866666Y-43875295D01*
X186866666Y-43875295D02*
X186866666Y-43970533D01*
X186866666Y-43970533D02*
X186819047Y-44113390D01*
X186819047Y-44113390D02*
X186247619Y-44684819D01*
X186247619Y-44684819D02*
X186866666Y-44684819D01*
X169359580Y-35542857D02*
X169407200Y-35590476D01*
X169407200Y-35590476D02*
X169454819Y-35733333D01*
X169454819Y-35733333D02*
X169454819Y-35828571D01*
X169454819Y-35828571D02*
X169407200Y-35971428D01*
X169407200Y-35971428D02*
X169311961Y-36066666D01*
X169311961Y-36066666D02*
X169216723Y-36114285D01*
X169216723Y-36114285D02*
X169026247Y-36161904D01*
X169026247Y-36161904D02*
X168883390Y-36161904D01*
X168883390Y-36161904D02*
X168692914Y-36114285D01*
X168692914Y-36114285D02*
X168597676Y-36066666D01*
X168597676Y-36066666D02*
X168502438Y-35971428D01*
X168502438Y-35971428D02*
X168454819Y-35828571D01*
X168454819Y-35828571D02*
X168454819Y-35733333D01*
X168454819Y-35733333D02*
X168502438Y-35590476D01*
X168502438Y-35590476D02*
X168550057Y-35542857D01*
X169454819Y-34590476D02*
X169454819Y-35161904D01*
X169454819Y-34876190D02*
X168454819Y-34876190D01*
X168454819Y-34876190D02*
X168597676Y-34971428D01*
X168597676Y-34971428D02*
X168692914Y-35066666D01*
X168692914Y-35066666D02*
X168740533Y-35161904D01*
X168454819Y-34257142D02*
X168454819Y-33638095D01*
X168454819Y-33638095D02*
X168835771Y-33971428D01*
X168835771Y-33971428D02*
X168835771Y-33828571D01*
X168835771Y-33828571D02*
X168883390Y-33733333D01*
X168883390Y-33733333D02*
X168931009Y-33685714D01*
X168931009Y-33685714D02*
X169026247Y-33638095D01*
X169026247Y-33638095D02*
X169264342Y-33638095D01*
X169264342Y-33638095D02*
X169359580Y-33685714D01*
X169359580Y-33685714D02*
X169407200Y-33733333D01*
X169407200Y-33733333D02*
X169454819Y-33828571D01*
X169454819Y-33828571D02*
X169454819Y-34114285D01*
X169454819Y-34114285D02*
X169407200Y-34209523D01*
X169407200Y-34209523D02*
X169359580Y-34257142D01*
X187159580Y-16042857D02*
X187207200Y-16090476D01*
X187207200Y-16090476D02*
X187254819Y-16233333D01*
X187254819Y-16233333D02*
X187254819Y-16328571D01*
X187254819Y-16328571D02*
X187207200Y-16471428D01*
X187207200Y-16471428D02*
X187111961Y-16566666D01*
X187111961Y-16566666D02*
X187016723Y-16614285D01*
X187016723Y-16614285D02*
X186826247Y-16661904D01*
X186826247Y-16661904D02*
X186683390Y-16661904D01*
X186683390Y-16661904D02*
X186492914Y-16614285D01*
X186492914Y-16614285D02*
X186397676Y-16566666D01*
X186397676Y-16566666D02*
X186302438Y-16471428D01*
X186302438Y-16471428D02*
X186254819Y-16328571D01*
X186254819Y-16328571D02*
X186254819Y-16233333D01*
X186254819Y-16233333D02*
X186302438Y-16090476D01*
X186302438Y-16090476D02*
X186350057Y-16042857D01*
X187254819Y-15090476D02*
X187254819Y-15661904D01*
X187254819Y-15376190D02*
X186254819Y-15376190D01*
X186254819Y-15376190D02*
X186397676Y-15471428D01*
X186397676Y-15471428D02*
X186492914Y-15566666D01*
X186492914Y-15566666D02*
X186540533Y-15661904D01*
X187254819Y-14138095D02*
X187254819Y-14709523D01*
X187254819Y-14423809D02*
X186254819Y-14423809D01*
X186254819Y-14423809D02*
X186397676Y-14519047D01*
X186397676Y-14519047D02*
X186492914Y-14614285D01*
X186492914Y-14614285D02*
X186540533Y-14709523D01*
X189859580Y-46666666D02*
X189907200Y-46714285D01*
X189907200Y-46714285D02*
X189954819Y-46857142D01*
X189954819Y-46857142D02*
X189954819Y-46952380D01*
X189954819Y-46952380D02*
X189907200Y-47095237D01*
X189907200Y-47095237D02*
X189811961Y-47190475D01*
X189811961Y-47190475D02*
X189716723Y-47238094D01*
X189716723Y-47238094D02*
X189526247Y-47285713D01*
X189526247Y-47285713D02*
X189383390Y-47285713D01*
X189383390Y-47285713D02*
X189192914Y-47238094D01*
X189192914Y-47238094D02*
X189097676Y-47190475D01*
X189097676Y-47190475D02*
X189002438Y-47095237D01*
X189002438Y-47095237D02*
X188954819Y-46952380D01*
X188954819Y-46952380D02*
X188954819Y-46857142D01*
X188954819Y-46857142D02*
X189002438Y-46714285D01*
X189002438Y-46714285D02*
X189050057Y-46666666D01*
X189954819Y-46190475D02*
X189954819Y-45999999D01*
X189954819Y-45999999D02*
X189907200Y-45904761D01*
X189907200Y-45904761D02*
X189859580Y-45857142D01*
X189859580Y-45857142D02*
X189716723Y-45761904D01*
X189716723Y-45761904D02*
X189526247Y-45714285D01*
X189526247Y-45714285D02*
X189145295Y-45714285D01*
X189145295Y-45714285D02*
X189050057Y-45761904D01*
X189050057Y-45761904D02*
X189002438Y-45809523D01*
X189002438Y-45809523D02*
X188954819Y-45904761D01*
X188954819Y-45904761D02*
X188954819Y-46095237D01*
X188954819Y-46095237D02*
X189002438Y-46190475D01*
X189002438Y-46190475D02*
X189050057Y-46238094D01*
X189050057Y-46238094D02*
X189145295Y-46285713D01*
X189145295Y-46285713D02*
X189383390Y-46285713D01*
X189383390Y-46285713D02*
X189478628Y-46238094D01*
X189478628Y-46238094D02*
X189526247Y-46190475D01*
X189526247Y-46190475D02*
X189573866Y-46095237D01*
X189573866Y-46095237D02*
X189573866Y-45904761D01*
X189573866Y-45904761D02*
X189526247Y-45809523D01*
X189526247Y-45809523D02*
X189478628Y-45761904D01*
X189478628Y-45761904D02*
X189383390Y-45714285D01*
X184359580Y-44366666D02*
X184407200Y-44414285D01*
X184407200Y-44414285D02*
X184454819Y-44557142D01*
X184454819Y-44557142D02*
X184454819Y-44652380D01*
X184454819Y-44652380D02*
X184407200Y-44795237D01*
X184407200Y-44795237D02*
X184311961Y-44890475D01*
X184311961Y-44890475D02*
X184216723Y-44938094D01*
X184216723Y-44938094D02*
X184026247Y-44985713D01*
X184026247Y-44985713D02*
X183883390Y-44985713D01*
X183883390Y-44985713D02*
X183692914Y-44938094D01*
X183692914Y-44938094D02*
X183597676Y-44890475D01*
X183597676Y-44890475D02*
X183502438Y-44795237D01*
X183502438Y-44795237D02*
X183454819Y-44652380D01*
X183454819Y-44652380D02*
X183454819Y-44557142D01*
X183454819Y-44557142D02*
X183502438Y-44414285D01*
X183502438Y-44414285D02*
X183550057Y-44366666D01*
X183883390Y-43795237D02*
X183835771Y-43890475D01*
X183835771Y-43890475D02*
X183788152Y-43938094D01*
X183788152Y-43938094D02*
X183692914Y-43985713D01*
X183692914Y-43985713D02*
X183645295Y-43985713D01*
X183645295Y-43985713D02*
X183550057Y-43938094D01*
X183550057Y-43938094D02*
X183502438Y-43890475D01*
X183502438Y-43890475D02*
X183454819Y-43795237D01*
X183454819Y-43795237D02*
X183454819Y-43604761D01*
X183454819Y-43604761D02*
X183502438Y-43509523D01*
X183502438Y-43509523D02*
X183550057Y-43461904D01*
X183550057Y-43461904D02*
X183645295Y-43414285D01*
X183645295Y-43414285D02*
X183692914Y-43414285D01*
X183692914Y-43414285D02*
X183788152Y-43461904D01*
X183788152Y-43461904D02*
X183835771Y-43509523D01*
X183835771Y-43509523D02*
X183883390Y-43604761D01*
X183883390Y-43604761D02*
X183883390Y-43795237D01*
X183883390Y-43795237D02*
X183931009Y-43890475D01*
X183931009Y-43890475D02*
X183978628Y-43938094D01*
X183978628Y-43938094D02*
X184073866Y-43985713D01*
X184073866Y-43985713D02*
X184264342Y-43985713D01*
X184264342Y-43985713D02*
X184359580Y-43938094D01*
X184359580Y-43938094D02*
X184407200Y-43890475D01*
X184407200Y-43890475D02*
X184454819Y-43795237D01*
X184454819Y-43795237D02*
X184454819Y-43604761D01*
X184454819Y-43604761D02*
X184407200Y-43509523D01*
X184407200Y-43509523D02*
X184359580Y-43461904D01*
X184359580Y-43461904D02*
X184264342Y-43414285D01*
X184264342Y-43414285D02*
X184073866Y-43414285D01*
X184073866Y-43414285D02*
X183978628Y-43461904D01*
X183978628Y-43461904D02*
X183931009Y-43509523D01*
X183931009Y-43509523D02*
X183883390Y-43604761D01*
X181159580Y-18166666D02*
X181207200Y-18214285D01*
X181207200Y-18214285D02*
X181254819Y-18357142D01*
X181254819Y-18357142D02*
X181254819Y-18452380D01*
X181254819Y-18452380D02*
X181207200Y-18595237D01*
X181207200Y-18595237D02*
X181111961Y-18690475D01*
X181111961Y-18690475D02*
X181016723Y-18738094D01*
X181016723Y-18738094D02*
X180826247Y-18785713D01*
X180826247Y-18785713D02*
X180683390Y-18785713D01*
X180683390Y-18785713D02*
X180492914Y-18738094D01*
X180492914Y-18738094D02*
X180397676Y-18690475D01*
X180397676Y-18690475D02*
X180302438Y-18595237D01*
X180302438Y-18595237D02*
X180254819Y-18452380D01*
X180254819Y-18452380D02*
X180254819Y-18357142D01*
X180254819Y-18357142D02*
X180302438Y-18214285D01*
X180302438Y-18214285D02*
X180350057Y-18166666D01*
X180254819Y-17833332D02*
X180254819Y-17166666D01*
X180254819Y-17166666D02*
X181254819Y-17595237D01*
X167533333Y-18959580D02*
X167485714Y-19007200D01*
X167485714Y-19007200D02*
X167342857Y-19054819D01*
X167342857Y-19054819D02*
X167247619Y-19054819D01*
X167247619Y-19054819D02*
X167104762Y-19007200D01*
X167104762Y-19007200D02*
X167009524Y-18911961D01*
X167009524Y-18911961D02*
X166961905Y-18816723D01*
X166961905Y-18816723D02*
X166914286Y-18626247D01*
X166914286Y-18626247D02*
X166914286Y-18483390D01*
X166914286Y-18483390D02*
X166961905Y-18292914D01*
X166961905Y-18292914D02*
X167009524Y-18197676D01*
X167009524Y-18197676D02*
X167104762Y-18102438D01*
X167104762Y-18102438D02*
X167247619Y-18054819D01*
X167247619Y-18054819D02*
X167342857Y-18054819D01*
X167342857Y-18054819D02*
X167485714Y-18102438D01*
X167485714Y-18102438D02*
X167533333Y-18150057D01*
X168390476Y-18388152D02*
X168390476Y-19054819D01*
X168152381Y-18007200D02*
X167914286Y-18721485D01*
X167914286Y-18721485D02*
X168533333Y-18721485D01*
X164759580Y-31666666D02*
X164807200Y-31714285D01*
X164807200Y-31714285D02*
X164854819Y-31857142D01*
X164854819Y-31857142D02*
X164854819Y-31952380D01*
X164854819Y-31952380D02*
X164807200Y-32095237D01*
X164807200Y-32095237D02*
X164711961Y-32190475D01*
X164711961Y-32190475D02*
X164616723Y-32238094D01*
X164616723Y-32238094D02*
X164426247Y-32285713D01*
X164426247Y-32285713D02*
X164283390Y-32285713D01*
X164283390Y-32285713D02*
X164092914Y-32238094D01*
X164092914Y-32238094D02*
X163997676Y-32190475D01*
X163997676Y-32190475D02*
X163902438Y-32095237D01*
X163902438Y-32095237D02*
X163854819Y-31952380D01*
X163854819Y-31952380D02*
X163854819Y-31857142D01*
X163854819Y-31857142D02*
X163902438Y-31714285D01*
X163902438Y-31714285D02*
X163950057Y-31666666D01*
X163854819Y-31333332D02*
X163854819Y-30714285D01*
X163854819Y-30714285D02*
X164235771Y-31047618D01*
X164235771Y-31047618D02*
X164235771Y-30904761D01*
X164235771Y-30904761D02*
X164283390Y-30809523D01*
X164283390Y-30809523D02*
X164331009Y-30761904D01*
X164331009Y-30761904D02*
X164426247Y-30714285D01*
X164426247Y-30714285D02*
X164664342Y-30714285D01*
X164664342Y-30714285D02*
X164759580Y-30761904D01*
X164759580Y-30761904D02*
X164807200Y-30809523D01*
X164807200Y-30809523D02*
X164854819Y-30904761D01*
X164854819Y-30904761D02*
X164854819Y-31190475D01*
X164854819Y-31190475D02*
X164807200Y-31285713D01*
X164807200Y-31285713D02*
X164759580Y-31333332D01*
X200659580Y-29266666D02*
X200707200Y-29314285D01*
X200707200Y-29314285D02*
X200754819Y-29457142D01*
X200754819Y-29457142D02*
X200754819Y-29552380D01*
X200754819Y-29552380D02*
X200707200Y-29695237D01*
X200707200Y-29695237D02*
X200611961Y-29790475D01*
X200611961Y-29790475D02*
X200516723Y-29838094D01*
X200516723Y-29838094D02*
X200326247Y-29885713D01*
X200326247Y-29885713D02*
X200183390Y-29885713D01*
X200183390Y-29885713D02*
X199992914Y-29838094D01*
X199992914Y-29838094D02*
X199897676Y-29790475D01*
X199897676Y-29790475D02*
X199802438Y-29695237D01*
X199802438Y-29695237D02*
X199754819Y-29552380D01*
X199754819Y-29552380D02*
X199754819Y-29457142D01*
X199754819Y-29457142D02*
X199802438Y-29314285D01*
X199802438Y-29314285D02*
X199850057Y-29266666D01*
X199850057Y-28885713D02*
X199802438Y-28838094D01*
X199802438Y-28838094D02*
X199754819Y-28742856D01*
X199754819Y-28742856D02*
X199754819Y-28504761D01*
X199754819Y-28504761D02*
X199802438Y-28409523D01*
X199802438Y-28409523D02*
X199850057Y-28361904D01*
X199850057Y-28361904D02*
X199945295Y-28314285D01*
X199945295Y-28314285D02*
X200040533Y-28314285D01*
X200040533Y-28314285D02*
X200183390Y-28361904D01*
X200183390Y-28361904D02*
X200754819Y-28933332D01*
X200754819Y-28933332D02*
X200754819Y-28314285D01*
D11*
%TO.C,C10*%
X171990000Y-38534420D02*
X171990000Y-38815580D01*
X173010000Y-38534420D02*
X173010000Y-38815580D01*
%TO.C,U4*%
X174177500Y-32540000D02*
X173677500Y-32540000D01*
X174177500Y-32040000D01*
X174177500Y-32540000D01*
G36*
X174177500Y-32540000D02*
G01*
X173677500Y-32540000D01*
X174177500Y-32040000D01*
X174177500Y-32540000D01*
G37*
X181397500Y-39760000D02*
X181397500Y-32540000D01*
X181397500Y-32540000D02*
X175307500Y-32540000D01*
X174177500Y-39760000D02*
X181397500Y-39760000D01*
X174177500Y-33670000D02*
X174177500Y-39760000D01*
%TO.C,C1*%
X186210000Y-25715580D02*
X186210000Y-25434420D01*
X185190000Y-25715580D02*
X185190000Y-25434420D01*
%TO.C,J1*%
X173850000Y-29380000D02*
X171950000Y-29380000D01*
X177750000Y-29380000D02*
X175750000Y-29380000D01*
X171950000Y-19980000D02*
X171950000Y-29380000D01*
X173850000Y-19980000D02*
X171950000Y-19980000D01*
X177750000Y-19980000D02*
X175750000Y-19980000D01*
%TO.C,U1*%
X184760000Y-27940000D02*
X184760000Y-29460000D01*
X184710000Y-27940000D02*
X184760000Y-27940000D01*
X182810000Y-27940000D02*
X183590000Y-27940000D01*
X181640000Y-27940000D02*
X181690000Y-27940000D01*
X184760000Y-29460000D02*
X183760000Y-29460000D01*
X182640000Y-29460000D02*
X181640000Y-29460000D01*
X181640000Y-29460000D02*
X181640000Y-27940000D01*
X183580000Y-27400000D02*
X183250000Y-27640000D01*
X183250000Y-27160000D01*
X183580000Y-27400000D01*
G36*
X183580000Y-27400000D02*
G01*
X183250000Y-27640000D01*
X183250000Y-27160000D01*
X183580000Y-27400000D01*
G37*
%TO.C,U2*%
X184940000Y-23390000D02*
X184610000Y-23150000D01*
X184940000Y-22910000D01*
X184940000Y-23390000D01*
G36*
X184940000Y-23390000D02*
G01*
X184610000Y-23150000D01*
X184940000Y-22910000D01*
X184940000Y-23390000D01*
G37*
X181540000Y-25510000D02*
X181540000Y-23690000D01*
X181590000Y-25510000D02*
X181540000Y-25510000D01*
X183490000Y-25510000D02*
X182710000Y-25510000D01*
X184660000Y-25510000D02*
X184610000Y-25510000D01*
X181540000Y-23690000D02*
X181590000Y-23690000D01*
X184610000Y-23690000D02*
X184660000Y-23690000D01*
X184660000Y-23690000D02*
X184660000Y-25510000D01*
%TO.C,E1*%
X192500000Y-39200000D02*
G75*
G02*
X190100000Y-39200000I-1200000J0D01*
G01*
X190100000Y-39200000D02*
G75*
G02*
X192500000Y-39200000I1200000J0D01*
G01*
%TO.C,C12*%
X177534420Y-31310000D02*
X177815580Y-31310000D01*
X177534420Y-30290000D02*
X177815580Y-30290000D01*
%TO.C,C5*%
X186834420Y-29390000D02*
X187115580Y-29390000D01*
X186834420Y-30410000D02*
X187115580Y-30410000D01*
%TO.C,C6*%
X186488748Y-27365000D02*
X187011252Y-27365000D01*
X186488748Y-28835000D02*
X187011252Y-28835000D01*
%TO.C,U5*%
X192190000Y-32030000D02*
X192190000Y-31750000D01*
X192470000Y-31750000D01*
X192190000Y-32030000D01*
G36*
X192190000Y-32030000D02*
G01*
X192190000Y-31750000D01*
X192470000Y-31750000D01*
X192190000Y-32030000D01*
G37*
X188840000Y-26000000D02*
X192150000Y-26000000D01*
X191750000Y-31820000D02*
X188860000Y-31820000D01*
%TO.C,R3*%
X182922500Y-21162258D02*
X182922500Y-20687742D01*
X181877500Y-21162258D02*
X181877500Y-20687742D01*
%TO.C,R_PROTECT1*%
X184077500Y-31462258D02*
X184077500Y-30987742D01*
X185122500Y-31462258D02*
X185122500Y-30987742D01*
%TO.C,R_GSR1*%
X189922500Y-33237742D02*
X189922500Y-33712258D01*
X188877500Y-33237742D02*
X188877500Y-33712258D01*
%TO.C,C_GSR1*%
X180534420Y-30290000D02*
X180815580Y-30290000D01*
X180534420Y-31310000D02*
X180815580Y-31310000D01*
%TO.C,R5*%
X187677500Y-20637742D02*
X187677500Y-21112258D01*
X188722500Y-20637742D02*
X188722500Y-21112258D01*
%TO.C,R4*%
X189422500Y-23787742D02*
X189422500Y-24262258D01*
X188377500Y-23787742D02*
X188377500Y-24262258D01*
%TO.C,R2*%
X190677500Y-33712258D02*
X190677500Y-33237742D01*
X191722500Y-33712258D02*
X191722500Y-33237742D01*
%TO.C,R1*%
X187237258Y-31922500D02*
X186762742Y-31922500D01*
X187237258Y-30877500D02*
X186762742Y-30877500D01*
%TO.C,J2*%
X188080000Y-40420000D02*
X186900000Y-40420000D01*
X188080000Y-39610000D02*
X188080000Y-40420000D01*
X188080000Y-38800000D02*
X188080000Y-33785000D01*
X188080000Y-38800000D02*
X187566708Y-38800000D01*
X188080000Y-33785000D02*
X187217923Y-33785000D01*
X186582077Y-33785000D02*
X185947923Y-33785000D01*
X185312077Y-40355000D02*
X184450000Y-40355000D01*
X185312077Y-33785000D02*
X184450000Y-33785000D01*
X184450000Y-40355000D02*
X184450000Y-33785000D01*
%TO.C,C13*%
X171790000Y-35165580D02*
X171790000Y-34884420D01*
X172810000Y-35165580D02*
X172810000Y-34884420D01*
%TO.C,C11*%
X183610000Y-32584420D02*
X183610000Y-32865580D01*
X182590000Y-32584420D02*
X182590000Y-32865580D01*
%TO.C,C9*%
X183610000Y-35634420D02*
X183610000Y-35915580D01*
X182590000Y-35634420D02*
X182590000Y-35915580D01*
%TO.C,C8*%
X182590000Y-38990580D02*
X182590000Y-38709420D01*
X183610000Y-38990580D02*
X183610000Y-38709420D01*
%TO.C,C7*%
X183490000Y-21015580D02*
X183490000Y-20734420D01*
X184510000Y-21015580D02*
X184510000Y-20734420D01*
%TO.C,C4*%
X174534420Y-30290000D02*
X174815580Y-30290000D01*
X174534420Y-31310000D02*
X174815580Y-31310000D01*
%TO.C,C3*%
X172910000Y-31834420D02*
X172910000Y-32115580D01*
X171890000Y-31834420D02*
X171890000Y-32115580D01*
%TO.C,C2*%
X186790000Y-25715580D02*
X186790000Y-25434420D01*
X187810000Y-25715580D02*
X187810000Y-25434420D01*
%TD*%
M02*
